bicep_curl
version=1
nRows=262
nColumns=3
inDegrees=yes

# SIMM Motion File Header:
name bicep_curl
datacolumns 3
datarows 262
otherdata 1
range 0.0000 0.2610
endheader
time	/jointset/r_shoulder/r_shoulder_elev/value	/jointset/r_elbow/r_elbow_flex/value
0.0000	0.0000	94.9200
0.0010	0.0000	95.0534
0.0020	0.0000	95.1865
0.0030	0.0000	95.3192
0.0040	0.0000	95.4516
0.0050	0.0000	95.5836
0.0060	0.0000	95.7153
0.0070	0.0000	95.8466
0.0080	0.0000	95.9776
0.0090	0.0000	96.1082
0.0100	0.0000	96.2385
0.0110	0.0000	96.3684
0.0120	0.0000	96.4980
0.0130	0.0000	96.6272
0.0140	0.0000	96.7561
0.0150	0.0000	96.8846
0.0160	0.0000	97.0128
0.0170	0.0000	97.1406
0.0180	0.0000	97.2680
0.0190	0.0000	97.3952
0.0200	0.0000	97.5219
0.0210	0.0000	97.6483
0.0220	0.0000	97.7744
0.0230	0.0000	97.9001
0.0240	0.0000	98.0255
0.0250	0.0000	98.1505
0.0260	0.0000	98.2752
0.0270	0.0000	98.3995
0.0280	0.0000	98.5234
0.0290	0.0000	98.6471
0.0300	0.0000	98.7703
0.0310	0.0000	98.8932
0.0320	0.0000	99.0158
0.0330	0.0000	99.1380
0.0340	0.0000	99.2599
0.0350	0.0000	99.3814
0.0360	0.0000	99.5025
0.0370	0.0000	99.6233
0.0380	0.0000	99.7438
0.0390	0.0000	99.8639
0.0400	0.0000	99.9836
0.0410	0.0000	100.1031
0.0420	0.0000	100.2221
0.0430	0.0000	100.3408
0.0440	0.0000	100.4592
0.0450	0.0000	100.5772
0.0460	0.0000	100.6948
0.0470	0.0000	100.8121
0.0480	0.0000	100.9291
0.0490	0.0000	101.0457
0.0500	0.0000	101.1619
0.0510	0.0000	101.2778
0.0520	0.0000	101.3934
0.0530	0.0000	101.5086
0.0540	0.0000	101.6234
0.0550	0.0000	101.7379
0.0560	0.0000	101.8521
0.0570	0.0000	101.9659
0.0580	0.0000	102.0793
0.0590	0.0000	102.1924
0.0600	0.0000	102.3052
0.0610	0.0000	102.4175
0.0620	0.0000	102.5296
0.0630	0.0000	102.6413
0.0640	0.0000	102.7526
0.0650	0.0000	102.8636
0.0660	0.0000	102.9743
0.0670	0.0000	103.0846
0.0680	0.0000	103.1945
0.0690	0.0000	103.3041
0.0700	0.0000	103.4133
0.0710	0.0000	103.5222
0.0720	0.0000	103.6308
0.0730	0.0000	103.7389
0.0740	0.0000	103.8468
0.0750	0.0000	103.9543
0.0760	0.0000	104.0614
0.0770	0.0000	104.1682
0.0780	0.0000	104.2746
0.0790	0.0000	104.3807
0.0800	0.0000	104.4864
0.0810	0.0000	104.5918
0.0820	0.0000	104.6969
0.0830	0.0000	104.8015
0.0840	0.0000	104.9059
0.0850	0.0000	105.0099
0.0860	0.0000	105.1135
0.0870	0.0000	105.2168
0.0880	0.0000	105.3197
0.0890	0.0000	105.4223
0.0900	0.0000	105.5245
0.0910	0.0000	105.6264
0.0920	0.0000	105.7279
0.0930	0.0000	105.8291
0.0940	0.0000	105.9299
0.0950	0.0000	106.0304
0.0960	0.0000	106.1305
0.0970	0.0000	106.2303
0.0980	0.0000	106.3297
0.0990	0.0000	106.4288
0.1000	0.0000	106.5275
0.1010	0.0000	106.6259
0.1020	0.0000	106.7239
0.1030	0.0000	106.8216
0.1040	0.0000	106.9189
0.1050	0.0000	107.0159
0.1060	0.0000	107.1125
0.1070	0.0000	107.2088
0.1080	0.0000	107.3047
0.1090	0.0000	107.4003
0.1100	0.0000	107.4955
0.1110	0.0000	107.5904
0.1120	0.0000	107.6849
0.1130	0.0000	107.7790
0.1140	0.0000	107.8729
0.1150	0.0000	107.9663
0.1160	0.0000	108.0594
0.1170	0.0000	108.1522
0.1180	0.0000	108.2446
0.1190	0.0000	108.3367
0.1200	0.0000	108.4284
0.1210	0.0000	108.5198
0.1220	0.0000	108.6108
0.1230	0.0000	108.7014
0.1240	0.0000	108.7917
0.1250	0.0000	108.8817
0.1260	0.0000	108.9713
0.1270	0.0000	109.0606
0.1280	0.0000	109.1495
0.1290	0.0000	109.2380
0.1300	0.0000	109.3262
0.1310	0.0000	109.4141
0.1320	0.0000	109.5016
0.1330	0.0000	109.5888
0.1340	0.0000	109.6756
0.1350	0.0000	109.7620
0.1360	0.0000	109.8481
0.1370	0.0000	109.9339
0.1380	0.0000	110.0193
0.1390	0.0000	110.1043
0.1400	0.0000	110.1890
0.1410	0.0000	110.2734
0.1420	0.0000	110.3574
0.1430	0.0000	110.4411
0.1440	0.0000	110.5244
0.1450	0.0000	110.6073
0.1460	0.0000	110.6899
0.1470	0.0000	110.7722
0.1480	0.0000	110.8541
0.1490	0.0000	110.9356
0.1500	0.0000	111.0168
0.1510	0.0000	111.0976
0.1520	0.0000	111.1781
0.1530	0.0000	111.2583
0.1540	0.0000	111.3381
0.1550	0.0000	111.4175
0.1560	0.0000	111.4966
0.1570	0.0000	111.5754
0.1580	0.0000	111.6538
0.1590	0.0000	111.7318
0.1600	0.0000	111.8095
0.1610	0.0000	111.8868
0.1620	0.0000	111.9638
0.1630	0.0000	112.0405
0.1640	0.0000	112.1168
0.1650	0.0000	112.1927
0.1660	0.0000	112.2683
0.1670	0.0000	112.3435
0.1680	0.0000	112.4184
0.1690	0.0000	112.4929
0.1700	0.0000	112.5671
0.1710	0.0000	112.6410
0.1720	0.0000	112.7145
0.1730	0.0000	112.7876
0.1740	0.0000	112.8604
0.1750	0.0000	112.9328
0.1760	0.0000	113.0049
0.1770	0.0000	113.0766
0.1780	0.0000	113.1480
0.1790	0.0000	113.2190
0.1800	0.0000	113.2897
0.1810	0.0000	113.3601
0.1820	0.0000	113.4300
0.1830	0.0000	113.4997
0.1840	0.0000	113.5689
0.1850	0.0000	113.6379
0.1860	0.0000	113.7065
0.1870	0.0000	113.7747
0.1880	0.0000	113.8426
0.1890	0.0000	113.9101
0.1900	0.0000	113.9773
0.1910	0.0000	114.0441
0.1920	0.0000	114.1106
0.1930	0.0000	114.1767
0.1940	0.0000	114.2425
0.1950	0.0000	114.3079
0.1960	0.0000	114.3730
0.1970	0.0000	114.4377
0.1980	0.0000	114.5021
0.1990	0.0000	114.5661
0.2000	0.0000	114.6297
0.2010	0.0000	114.6931
0.2020	0.0000	114.7560
0.2030	0.0000	114.8187
0.2040	0.0000	114.8809
0.2050	0.0000	114.9428
0.2060	0.0000	115.0044
0.2070	0.0000	115.0656
0.2080	0.0000	115.1265
0.2090	0.0000	115.1870
0.2100	0.0000	115.2472
0.2110	0.0000	115.3070
0.2120	0.0000	115.3665
0.2130	0.0000	115.4256
0.2140	0.0000	115.4843
0.2150	0.0000	115.5427
0.2160	0.0000	115.6008
0.2170	0.0000	115.6585
0.2180	0.0000	115.7159
0.2190	0.0000	115.7729
0.2200	0.0000	115.8295
0.2210	0.0000	115.8859
0.2220	0.0000	115.9418
0.2230	0.0000	115.9974
0.2240	0.0000	116.0527
0.2250	0.0000	116.1076
0.2260	0.0000	116.1622
0.2270	0.0000	116.2164
0.2280	0.0000	116.2702
0.2290	0.0000	116.3237
0.2300	0.0000	116.3769
0.2310	0.0000	116.4297
0.2320	0.0000	116.4821
0.2330	0.0000	116.5342
0.2340	0.0000	116.5860
0.2350	0.0000	116.6374
0.2360	0.0000	116.6884
0.2370	0.0000	116.7391
0.2380	0.0000	116.7895
0.2390	0.0000	116.8395
0.2400	0.0000	116.8891
0.2410	0.0000	116.9384
0.2420	0.0000	116.9874
0.2430	0.0000	117.0360
0.2440	0.0000	117.0842
0.2450	0.0000	117.1321
0.2460	0.0000	117.1797
0.2470	0.0000	117.2269
0.2480	0.0000	117.2737
0.2490	0.0000	117.3202
0.2500	0.0000	117.3664
0.2510	0.0000	117.4122
0.2520	0.0000	117.4576
0.2530	0.0000	117.5027
0.2540	0.0000	117.5474
0.2550	0.0000	117.5918
0.2560	0.0000	117.6359
0.2570	0.0000	117.6796
0.2580	0.0000	117.7229
0.2590	0.0000	117.7659
0.2600	0.0000	117.8085
0.2610	0.0000	117.8508
